<?xml version="1.0" encoding="UTF-8" standalone="no"?>
<svg xmlns:dc="http://purl.org/dc/elements/1.1/" xmlns:cc="http://creativecommons.org/ns#" xmlns:rdf="http://www.w3.org/1999/02/22-rdf-syntax-ns#" xmlns:svg="http://www.w3.org/2000/svg" xmlns="http://www.w3.org/2000/svg" xmlns:sodipodi="http://sodipodi.sourceforge.net/DTD/sodipodi-0.dtd" xmlns:inkscape="http://www.inkscape.org/namespaces/inkscape" width="512" height="512" viewBox="0 0 135.46666 135.46667" version="1.1" id="svg6826">
  <defs id="defs6820"></defs>
  <metadata id="metadata6823"></metadata>
  <g id="layer1" transform="translate(0,-161.53332)">
    <g id="g6863" transform="translate(2.9716212,1.5640983)">
      <g transform="matrix(22.793376,0,0,22.793376,5561.3573,-338.87531)" id="g6853">
        <g transform="matrix(0.35277777,0,0,-0.35277777,-419.44665,110.96743)" id="g6803">
          <g transform="translate(513.8347,250.8307)" id="g6506"></g>
          <g id="g7414">
            <path d="m 0,0 v -13.478 c 0,-0.93 -0.754,-1.684 -1.685,-1.684 h -13.477 c -0.931,0 -1.685,0.754 -1.685,1.684 V 0 c 0,0.93 0.754,1.685 1.685,1.685 H -1.685 C -0.754,1.685 0,0.93 0,0" style="fill:#100015;fill-opacity:1;fill-rule:nonzero;stroke:none" id="path6508" transform="translate(513.8347,250.8307)"></path>
            <g id="g6510" transform="translate(507.2275,247.9536)">
              <path d="m 0,0 h -2.356 l 1.112,-1.588 h 0.003 L 2.327,-6.67 h 2.596 z" style="fill:#ffffff;fill-opacity:1;fill-rule:nonzero;stroke:none" id="path6512"></path>
            </g>
            <g id="g6514" transform="translate(503.5952,247.9536)">
              <path d="m 0,0 -4.923,-6.67 h 2.43 l 3.596,5.082 H 1.635 L 0.523,0 Z" style="fill:#ffffff;fill-opacity:1;fill-rule:nonzero;stroke:none" id="path6516"></path>
            </g>
          </g>
        </g>
      </g>
    </g>
  </g>
</svg>
